<svg height="128" width="128" xmlns="http://www.w3.org/2000/svg" xmlns:xlink="http://www.w3.org/1999/xlink"><radialGradient id="a" cx="99.157013" cy="186.17059" gradientTransform="matrix(.6869404 0 0 .21461693 -4.02174 68.573331)" gradientUnits="userSpaceOnUse" r="62.769119"><stop offset="0" stop-color="#3d3d3d"/><stop offset=".5" stop-color="#686868" stop-opacity=".498039"/><stop offset="1" stop-color="#686868" stop-opacity="0"/></radialGradient><linearGradient id="b" gradientTransform="matrix(2.756758 0 0 2.7567581 -133.25196 -3.403753)" gradientUnits="userSpaceOnUse" x1="71.204407" x2="71.204407" y1="6.237558" y2="44.340794"><stop offset="0" stop-color="#fff"/><stop offset=".507761" stop-color="#fff" stop-opacity=".235294"/><stop offset=".83456558" stop-color="#fff" stop-opacity=".156863"/><stop offset="1" stop-color="#fff" stop-opacity=".392157"/></linearGradient><linearGradient id="c" gradientTransform="matrix(3.9856238 0 0 2.9796368 -8061.465 -9541.5171)" gradientUnits="userSpaceOnUse" x1="2035.1652" x2="2035.1652" y1="3208.0737" y2="3241.9966"><stop offset="0" stop-color="#9bdb4d"/><stop offset="1" stop-color="#68b723"/></linearGradient><path d="m107.21186 108.52868a43.118644 13.471312 0 1 1 -86.237286 0 43.118644 13.471312 0 1 1 86.237286 0z" fill="url(#a)"/><path d="m64.499995 14.499998c-28.691823 0-51.999995 23.308184-51.999995 52.000001s23.308172 52.000001 51.999995 52.000001c28.691819 0 52.000055-23.308184 52.000005-52.000001 0-28.691817-23.308186-52.000001-52.000005-52.000001z" fill="url(#c)" opacity=".99"/><path d="m115.5 66.498172c0 28.167477-22.835193 51.001848-50.99938 51.001848-28.166783 0-51.000617-22.834639-51.000617-51.001848 0-28.166134 22.833834-50.998201 51.000617-50.998201 28.164187 0 50.99938 22.832067 50.99938 50.998201z" fill="none" opacity=".5" stroke="url(#b)" stroke-linecap="round" stroke-linejoin="round"/><path d="m64.50001 14.499989c-28.691808 0-52.00001 23.308195-52.00001 52.000003 0 28.691807 23.308202 52.000008 52.00001 52.000008 28.691804 0 52.00002-23.308201 51.99999-52.000008 0-28.691808-23.308186-52.000004-51.99999-52.000003z" fill="none" opacity=".5" stroke="#206b00" stroke-linecap="round" stroke-linejoin="round"/><path d="m83.9329 42.000002 10.067098 9.101169-33.825542 44.898829-26.174456-22.651644 8.657708-11.528128 15.302 13.34832z" fill="#fff" opacity=".5"/><path d="m83.9329 41.000002 10.067098 9.101169-33.825542 44.898829-26.174456-22.651644 8.657708-11.528128 15.302 13.34832z" fill="#206b00"/></svg>